<?xml version="1.0" encoding="UTF-8"?>
<svg id="Layer_2" data-name="Layer 2" xmlns="http://www.w3.org/2000/svg" viewBox="0 0 970.21 646.73">
  <defs>
    <style>
      .cls-1 {
        font-family: Bodoni-Bold, Bodoni;
        font-size: 164px;
        font-weight: 700;
      }
    </style>
  </defs>
  <g id="Layer_1-2" data-name="Layer 1">
    <text class="cls-1" transform="translate(0 602.61)"><tspan x="0" y="0">Royal Homes</tspan></text>
  </g>
  <g id="Layer_3" data-name="Layer 3">
    <g>
      <path d="m740.08,395.67c-.37-.49-1.16-.73-2.38-.73-.98,0-2.38-.06-4.21-.18-1.83-.12-3.72-.3-5.67-.55-1.22,0-2.38-.06-3.47-.18-1.1-.12-2.14-.3-3.11-.55-5.36-.73-8.96-2.92-10.79-6.59-1.83-3.66-2.99-8.18-3.47-13.55-.98-7.81-1.52-18.61-1.64-32.4-.13-13.79-.18-29.59-.18-47.41v-64.44c-.58-34.91-.38-49.14,0-55.1,0,0,.73-11.54.73-22.52v-1.1c.49-6.34,1.65-11.16,3.47-14.46,1.83-3.3,5.18-5.43,10.05-6.41,1.95-.24,3.53-.49,4.75-.73,1.22-.24,2.31-.37,3.29-.37h1.1c.73,0,1.4-.18,2.01-.55.61-.37.91-.91.91-1.65,0-1.22-.49-2.01-1.46-2.38-.98-.37-2.44-.55-4.39-.55-.32,0-.67,0-1.02,0-.03,0-.05,0-.08,0h-56.56v116.26h-150.74c-.42,0-.84-.11-1.26-.29v-91.07c.57-5.27,1.66-9.36,3.27-12.27,1.83-3.3,5.18-5.44,10.05-6.42,1.95-.24,3.53-.49,4.75-.73,1.22-.24,2.31-.37,3.29-.37h1.1c.33,0,.65-.04.96-.12h3.14c1.35,0,2.44-1.09,2.44-2.44v-.12c0-1.35-1.09-2.44-2.44-2.44h-46.84v276.4h17.28v-.4h1.77c.22.01.43.02.66.04.22,0,.45,0,.67,0-.03-.38-.06-.75-.1-1.13v-144.12c.42-.21.83-.42,1.26-.63h150.74v146.24h56.56c.07,0,.14-.02.21-.02.9,0,1.8.02,2.71.02h7.31c1.95,0,3.41-.18,4.39-.55.97-.37,1.46-1.03,1.46-2.01,0-.49-.18-.97-.55-1.46Z"/>
      <path d="m467.71,123.29h-34.28c-.45,0-.86.13-1.23.34-2.64-.02-5.23-.07-7.74-.16-3.41-.12-6.33-.18-8.77-.18-2.68,0-5.3.06-7.86.18-2.56.13-5.06.18-7.5.18-9.26.49-18.28,1.89-27.05,4.2-2.96.78-5.85,1.74-8.67,2.86-1.45.58-7.94,3.23-15.83,8.65-2.81,1.93-7.12,4.93-11.79,9.62,0,0-7.56,7.61-13,18-18.59,35.54-4.9,66.6-4.9,66.6,13.24,30.03,43.49,38.8,47.75,39.95-2.91,9.01-13.52,18.66-19.58,26.35-6.98,8.87-13.97,17.73-20.97,26.57-12.55,15.87-24.07,29.53-34.55,41.01-9.99,10.5-18.77,17.33-26.32,20.51-7.55,3.18-13.65,5.12-18.28,5.86-3.41.49-6.4.79-8.96.91-2.56.13-4.32.18-5.3.18s-1.77.25-2.38.73c-.61.49-.91.98-.91,1.46,0,.98.61,1.65,1.83,2.01,1.22.37,3.54.55,6.95.55h25.96c10,0,17.73-.43,23.22-1.28,5.48-.85,10.54-2.5,15.17-4.94.25-.24.49-.37.73-.37,2.19-1.22,4.27-2.56,6.22-4.02,1.95-1.46,3.9-3.04,5.85-4.75,10.19-8.93,17.18-18.65,17.18-18.65,7.22-9.67,32.83-39.99,69.3-82.69,13.46-.34,26.92-.69,40.39-1.03.7.18,1.23.41,1.61.71v81.18c-.24,3.55-.53,6.73-.88,9.51-.49,5.36-1.65,9.87-3.47,13.53-1.83,3.66-5.42,5.85-10.79,6.58-.97.25-2.01.43-3.11.55-1.1.13-2.25.18-3.47.18-1.67.21-3.29.37-4.88.48h-7.96c-1.35,0-2.44,1.09-2.44,2.44v.12c0,1.35,1.09,2.44,2.44,2.44h58.28V123.29Zm-23.72,137.88c-7.09.57-14.54.96-22.35,1.1-13.52.25-26.12-.28-37.65-1.27-5.42-1.88-16.11-6.53-23.33-17.31-7.05-10.55-6.4-20.99-6.4-35.38,0-22.97,5.67-40.93,17-53.89,11.33-12.95,26.75-19.43,46.25-19.43,5.36,0,10.3.25,14.81.73,4.51.49,7.74.98,9.69,1.46.85.21,1.5.62,1.98,1.2v122.78Z"/>
      <path d="m483.37,37.41c10.28-3.58,20.69-5.69,31.05-6.36-2.19-17.5-17.11-31.05-35.21-31.05-17.08,0-31.34,12.07-34.73,28.14,13.01.79,26.05,3.9,38.9,9.27Z"/>
      <path d="m524.37,38.84c-15.24-.44-29.15,2.61-41.26,7.18-13.64-6.1-29.96-10.58-48.22-10.05-60.65,1.75-109.75,57.75-107.36,61.43.51.79,3.91.05,15.5-5.74,4.21-4.4,8.42-8.8,12.63-13.21l-5.74,11.48c13.71-2.31,27.42-4.62,41.13-6.92-25.96,21.78-40.7,47.51-38.84,49.54.64.69,3.87-.6,14.34-8.23,3.42-5.04,6.85-10.08,10.27-15.11-1.25,4.09-2.51,8.18-3.76,12.28,18.52-6.41,37.05-12.82,55.57-19.23.37-5.88.74-11.77,1.11-17.65,2.05,5.28,4.1,10.57,6.15,15.85,5.19-1.45,10.38-2.91,15.57-4.36l7.25-15.77c.32,4.22.64,8.43.96,12.65l23.37-5.66c10.56,4.72,21.11,9.44,31.67,14.15l3.24-12.26c1.42,5.61,2.84,11.22,4.26,16.83,4.84,2.37,9.68,4.74,14.52,7.12,2.98-4.82,5.95-9.65,8.93-14.47-.7,5.85-1.41,11.71-2.11,17.56,17.05,9.67,34.1,19.33,51.15,29-.49-4.25-.98-8.5-1.47-12.75,2.45,5.58,4.9,11.15,7.35,16.73,8.91,9.41,11.85,11.26,12.6,10.7,2.75-2.07-13.22-45.11-47.38-74.43,14.51,2.44,29.02,4.88,43.53,7.33-1.91-3.83-3.83-7.66-5.74-11.48,4.21,4.4,8.42,8.8,12.63,13.21,11.59,5.79,14.99,6.53,15.5,5.74,2.39-3.68-46.71-59.68-107.36-61.43Zm-112.45,24.11c.32,1.57.65,3.13.97,4.7-.81.46-1.6.93-2.4,1.41.47-2.04.95-4.07,1.42-6.1Zm134.22,8.65l1.2-5.78c.58,2.5,1.17,5,1.75,7.5-.97-.59-1.95-1.16-2.95-1.72Z"/>
      <path d="m491.71,400h-21c3.46-64.17,5.04-132.08,4-203.35-.59-40.06-1.97-78.96-4-116.65h21c-2.78,67-3.93,136.92-3,209.55.48,37.61,1.51,74.43,3,110.45Z"/>
    </g>
  </g>
</svg>